<?xml version="1.0" standalone="no"?><svg xmlns="http://www.w3.org/2000/svg" viewBox="0 0 1440 320"><path fill="#c1b79f" fill-opacity="1" d="M0,256L40,250.7C80,245,160,235,240,240C320,245,400,267,480,250.7C560,235,640,181,720,154.7C800,128,880,128,960,117.3C1040,107,1120,85,1200,112C1280,139,1360,213,1400,250.7L1440,288L1440,320L1400,320C1360,320,1280,320,1200,320C1120,320,1040,320,960,320C880,320,800,320,720,320C640,320,560,320,480,320C400,320,320,320,240,320C160,320,80,320,40,320L0,320Z"></path></svg>